<?xml version="1.0" encoding="UTF-8" standalone="no"?>
<!-- Generator: Adobe Illustrator 19.0.0, SVG Export Plug-In . SVG Version: 6.00 Build 0)  -->

<svg
   xmlns:dc="http://purl.org/dc/elements/1.1/"
   xmlns:cc="http://creativecommons.org/ns#"
   xmlns:rdf="http://www.w3.org/1999/02/22-rdf-syntax-ns#"
   xmlns:svg="http://www.w3.org/2000/svg"
   xmlns="http://www.w3.org/2000/svg"
   xmlns:sodipodi="http://sodipodi.sourceforge.net/DTD/sodipodi-0.dtd"
   xmlns:inkscape="http://www.inkscape.org/namespaces/inkscape"
   version="1.1"
   id="Capa_1"
   x="0px"
   y="0px"
   viewBox="0 0 512 512"
   style="enable-background:new 0 0 512 512;"
   xml:space="preserve"
   sodipodi:docname="logo-monochrome.svg"
   inkscape:version="0.92.3 (2405546, 2018-03-11)"><metadata
   id="metadata148"><rdf:RDF><cc:Work
       rdf:about=""><dc:format>image/svg+xml</dc:format><dc:type
         rdf:resource="http://purl.org/dc/dcmitype/StillImage" /><dc:title /></cc:Work></rdf:RDF></metadata><defs
   id="defs146">
	
	
</defs><sodipodi:namedview
   pagecolor="#ffffff"
   bordercolor="#666666"
   borderopacity="1"
   objecttolerance="10"
   gridtolerance="10"
   guidetolerance="10"
   inkscape:pageopacity="0"
   inkscape:pageshadow="2"
   inkscape:window-width="1366"
   inkscape:window-height="713"
   id="namedview144"
   showgrid="false"
   inkscape:zoom="0.65186406"
   inkscape:cx="326.27159"
   inkscape:cy="194.63751"
   inkscape:window-x="0"
   inkscape:window-y="27"
   inkscape:window-maximized="1"
   inkscape:current-layer="layer2" />





























<g
   inkscape:groupmode="layer"
   id="layer1"
   inkscape:label="frog"><g
     style="fill:#000000;fill-opacity:1"
     transform="matrix(11.084782,0,0,11.084782,128.8273,-25.824391)"
     id="g38"><g
       id="g6"
       style="fill:#000000;fill-opacity:1"><path
         inkscape:connector-curvature="0"
         d="m 28.524,10.848 c 1.967,-1.649 -0.856,-0.77 -0.856,-0.77 1.209,-2.266 -0.703,-1.059 -0.703,-1.059 -0.203,1.31 -0.807,1.512 -0.807,1.512 -2.923,2.52 -5.439,2.167 -5.439,2.167 0,0 0.035,-0.469 0.06,-1.176 C 22.496,10.803 23.438,8.92 23.438,8.92 24.345,7.107 25.351,7.257 25.351,7.257 29.634,6.451 25.705,6.098 25.705,6.098 28.425,2.975 24.898,5.192 24.898,5.192 24.444,1.717 23.788,4.587 23.788,4.587 23.913,8 21.675,9.805 20.807,10.378 20.811,9.589 20.793,8.695 20.719,7.862 20.515,5.646 18.503,6.401 16.789,6.803 c -1.713,0.404 -2.57,1.562 -2.017,2.067 0.557,0.504 0.657,1.208 0.454,3.021 -0.2,1.813 -3.526,2.872 -5.136,3.325 C 8.477,15.669 4.597,14.812 4.044,14.647 3.49,14.479 3.39,14.106 3.39,14.106 c -0.553,-1.156 -0.906,0 -0.906,0 l 0.199,0.757 c -6.096,0.151 0.101,1.008 0.101,1.008 -3.124,1.763 0.503,0.705 0.503,0.705 0.103,-0.705 2.824,-0.48 2.824,-0.48 4.283,0.175 3.172,4.056 3.172,4.056 C 6.36,24.886 2.43,22.62 2.43,22.62 c -2.82,-0.352 -0.351,1.159 -0.351,1.159 -3.879,1.259 0.404,1.11 0.404,1.11 -1.913,1.713 0.804,0.605 0.804,0.605 0.707,-0.707 2.017,-1.161 2.017,-1.161 14.559,-4.18 15.665,-9.921 15.665,-9.921 3.979,-0.707 4.333,-1.511 5.089,-2.116 0.753,-0.604 1.913,-0.152 1.913,-0.152 2.67,0.25 0.553,-1.296 0.553,-1.296 z m -10.779,0.489 c -0.917,0 -1.663,-0.789 -1.663,-1.761 0,-0.975 0.746,-1.765 1.663,-1.765 0.917,0 1.664,0.791 1.664,1.765 0,0.972 -0.746,1.761 -1.664,1.761 z"
         id="path2"
         style="fill:#000000;fill-opacity:1" /><circle
         cx="17.746"
         cy="9.5760002"
         r="0.77100003"
         id="circle4"
         style="fill:#000000;fill-opacity:1" /></g><g
       id="g8"
       style="fill:#000000;fill-opacity:1" /><g
       id="g10"
       style="fill:#000000;fill-opacity:1" /><g
       id="g12"
       style="fill:#000000;fill-opacity:1" /><g
       id="g14"
       style="fill:#000000;fill-opacity:1" /><g
       id="g16"
       style="fill:#000000;fill-opacity:1" /><g
       id="g18"
       style="fill:#000000;fill-opacity:1" /><g
       id="g20"
       style="fill:#000000;fill-opacity:1" /><g
       id="g22"
       style="fill:#000000;fill-opacity:1" /><g
       id="g24"
       style="fill:#000000;fill-opacity:1" /><g
       id="g26"
       style="fill:#000000;fill-opacity:1" /><g
       id="g28"
       style="fill:#000000;fill-opacity:1" /><g
       id="g30"
       style="fill:#000000;fill-opacity:1" /><g
       id="g32"
       style="fill:#000000;fill-opacity:1" /><g
       id="g34"
       style="fill:#000000;fill-opacity:1" /><g
       id="g36"
       style="fill:#000000;fill-opacity:1" /></g></g><g
   inkscape:groupmode="layer"
   id="layer2"
   inkscape:label="box"><path
     inkscape:connector-curvature="0"
     style="fill:#000000"
     d="m 78.2,468.7 v -99.6 c 0,-12.8 10.5,-23.3 23.3,-23.3 h 136.9 c 28.0439,0 28.96594,-20.43188 31.6,-29.3 L 290.9,209.4 H 58.2 46.5 v 116.4 162.9 c 0,7 4.7,11.6 11.6,11.6 h 232.7 c -7,-7 43.06603,-32.38181 32.69546,-31.6 H 78.2 Z"
     id="path95"
     sodipodi:nodetypes="cssscccccsscscc" /><path
     style="fill:#000000"
     d="m 290.90039,209.5 20.90039,107.09961 c 1.2,5.8 11.22602,29.30078 31.59961,29.30078 H 410.5 c 12.8,0 21.18965,10.67413 23.30078,23.29883 v 99.60156 H 259.73939 c -10.5,0 18.161,24.69961 11.161,31.59961 h 182.90039 c 7,0 11.59961,-4.69961 11.59961,-11.59961 v -163 V 209.5 h -11.59961 z"
     id="path97"
     inkscape:connector-curvature="0"
     sodipodi:nodetypes="ccssscscsscccc" /><path
     inkscape:connector-curvature="0"
     style="fill:#000000"
     d="m 361.9,302.5 h 138.5 c 7,0 11.6,-5.8 11.6,-11.6 0,-2.3 0,-4.7 -2.3,-5.8 L 465.5,209.5 H 290.9 l 51.2,82.6 c 4.7,5.8 11.6,10.4 19.8,10.4 z"
     id="path99" /><path
     inkscape:connector-curvature="0"
     style="fill:#000000"
     d="M 219.9,302.5 H 11.6 c -7,0 -11.6,-5.8 -11.6,-11.6 0,-2.3 0,-4.7 2.3,-5.8 l 44.2,-75.6 h 244.4 l -51.2,82.6 c -4.6,5.8 -11.6,10.4 -19.8,10.4 z"
     id="path101" /><path
     id="path103"
     d="m 75.6,418.9 h 69.8 c 3.5,0 5.8,2.3 5.8,5.8 v 0 c 0,3.5 -2.3,5.8 -5.8,5.8 H 75.6 c -3.5,0 -5.8,-2.3 -5.8,-5.8 v 0 c 0,-3.5 2.3,-5.8 5.8,-5.8 z"
     style="fill:#000000"
     inkscape:connector-curvature="0" /><path
     id="path105"
     d="m 75.6,442.2 h 46.5 c 3.5,0 5.8,2.3 5.8,5.8 v 0 c 0,3.5 -2.3,5.8 -5.8,5.8 H 75.6 c -3.5,0 -5.8,-2.3 -5.8,-5.8 v 0 c 0,-3.5 2.3,-5.8 5.8,-5.8 z"
     style="fill:#000000"
     inkscape:connector-curvature="0" /><g
     id="g113">
</g><g
     id="g115">
</g><g
     id="g117">
</g><g
     id="g119">
</g><g
     id="g121">
</g><g
     id="g123">
</g><g
     id="g125">
</g><g
     id="g127">
</g><g
     id="g129">
</g><g
     id="g131">
</g><g
     id="g133">
</g><g
     id="g135">
</g><g
     id="g137">
</g><g
     id="g139">
</g><g
     id="g141">
</g></g></svg>